<?xml version="1.0" standalone="no"?>
<!DOCTYPE svg PUBLIC "-//W3C//DTD SVG 20010904//EN"
 "http://www.w3.org/TR/2001/REC-SVG-20010904/DTD/svg10.dtd">
<svg version="1.0" xmlns="http://www.w3.org/2000/svg"
 width="263.000000pt" height="64.000000pt" viewBox="0 0 263.000000 64.000000"
 preserveAspectRatio="xMidYMid meet">

<g transform="translate(0.000000,64.000000) scale(0.100000,-0.100000)"
fill="#000000" stroke="none">
<path d="M235 602 l-30 -17 2 -170 c1 -93 4 -180 6 -192 5 -25 -4 -22 -45 16
-28 26 -28 26 -28 163 0 76 -3 138 -6 138 -3 0 -19 -8 -35 -17 -29 -17 -29
-18 -26 -98 4 -73 6 -80 26 -83 14 -2 21 -11 21 -25 0 -18 -10 -11 -60 38
l-60 59 0 -130 0 -129 78 -78 77 -77 122 0 122 0 3 241 3 241 -27 14 c-15 8
-28 14 -30 14 -2 0 -2 -102 -2 -226 l2 -226 -39 38 -39 38 -2 242 -3 242 -30
-16z m25 -57 c0 -18 -5 -25 -20 -25 -15 0 -20 7 -20 25 0 18 5 25 20 25 15 0
20 -7 20 -25z m-140 -80 c0 -16 -6 -25 -15 -25 -9 0 -15 9 -15 25 0 16 6 25
15 25 9 0 15 -9 15 -25z m140 -40 c0 -18 -5 -25 -20 -25 -15 0 -20 7 -20 25 0
18 5 25 20 25 15 0 20 -7 20 -25z m130 -35 c0 -20 -5 -30 -15 -30 -10 0 -15
10 -15 30 0 20 5 30 15 30 10 0 15 -10 15 -30z m-132 -93 c-2 -11 -9 -22 -15
-25 -16 -4 -27 22 -19 43 8 22 38 6 34 -18z m-149 -11 c19 -20 21 -28 12 -44
-20 -38 -13 -81 19 -114 31 -30 51 -33 115 -14 15 4 26 -3 44 -27 14 -17 19
-27 12 -21 -16 14 -71 -4 -71 -23 0 -8 -12 -13 -30 -13 -18 0 -30 5 -30 13 0
18 -47 40 -56 26 -9 -14 -46 21 -40 38 8 20 -12 63 -29 63 -10 0 -15 10 -15
30 0 19 5 30 14 30 19 0 38 54 23 69 -7 7 -7 11 -1 11 6 0 21 -11 33 -24z
m281 -21 c0 -16 -6 -25 -15 -25 -9 0 -15 9 -15 25 0 16 6 25 15 25 9 0 15 -9
15 -25z m-130 -91 c0 -8 -4 -14 -9 -14 -12 0 -32 26 -25 33 10 9 34 -4 34 -19z
m130 -29 c0 -16 -6 -25 -15 -25 -9 0 -15 9 -15 25 0 16 6 25 15 25 9 0 15 -9
15 -25z"/>
<path d="M1450 410 c0 -5 5 -10 10 -10 6 0 10 5 10 10 0 6 -4 10 -10 10 -5 0
-10 -4 -10 -10z"/>
<path d="M1870 370 c0 -27 5 -50 10 -50 6 0 10 14 10 30 0 17 5 30 10 30 6 0
10 -13 10 -30 0 -16 5 -30 10 -30 6 0 10 14 10 31 0 22 -5 32 -20 36 -11 3
-20 12 -20 19 0 8 -4 14 -10 14 -5 0 -10 -22 -10 -50z"/>
<path d="M1950 410 c0 -5 5 -10 10 -10 6 0 10 5 10 10 0 6 -4 10 -10 10 -5 0
-10 -4 -10 -10z"/>
<path d="M582 398 c-7 -7 -12 -24 -12 -39 0 -27 16 -40 48 -38 12 0 10 3 -5 9
-16 6 -23 18 -23 35 0 17 7 29 23 35 21 8 21 9 2 9 -12 1 -26 -4 -33 -11z"/>
<path d="M1058 398 c-9 -28 7 -73 27 -75 11 -2 14 0 8 3 -16 7 -17 54 -2 54 6
0 4 7 -5 15 -18 18 -23 19 -28 3z"/>
<path d="M1220 365 c0 -25 5 -45 10 -45 6 0 10 18 10 40 0 43 23 57 35 21 7
-22 -3 -51 -18 -51 -6 0 -8 -2 -5 -5 15 -15 38 10 38 40 0 34 -13 45 -51 45
-16 0 -19 -7 -19 -45z"/>
<path d="M1678 365 c-10 -25 -13 -45 -8 -45 6 0 10 5 10 10 0 6 11 10 25 10
14 0 25 -4 25 -10 0 -5 4 -10 9 -10 6 0 3 20 -6 45 -8 25 -20 45 -27 45 -6 0
-19 -20 -28 -45z m42 -7 c0 -5 -7 -8 -15 -8 -17 0 -18 2 -9 25 5 13 8 14 15 3
5 -7 9 -16 9 -20z"/>
<path d="M1988 398 c-9 -28 7 -73 27 -75 11 -2 14 0 8 3 -16 7 -17 54 -2 54 6
0 4 7 -5 15 -18 18 -23 19 -28 3z"/>
<path d="M2178 398 c-3 -7 -15 -13 -29 -13 -19 0 -25 -6 -27 -28 -4 -29 21
-48 40 -29 7 7 4 10 -8 9 -13 -1 -19 5 -19 18 0 31 39 27 45 -5 3 -15 13 -26
25 -27 11 -2 14 0 8 3 -16 7 -17 54 -2 54 6 0 4 7 -5 15 -18 18 -23 19 -28 3z"/>
<path d="M654 376 c-11 -29 0 -51 26 -51 21 0 25 5 25 30 0 24 -5 31 -23 33
-13 2 -24 -3 -28 -12z m43 -12 c8 -21 -13 -42 -28 -27 -13 13 -5 43 11 43 6 0
13 -7 17 -16z"/>
<path d="M730 355 c0 -19 5 -35 10 -35 6 0 10 13 10 29 0 16 6 32 13 34 6 3 2
6 -10 6 -20 1 -23 -4 -23 -34z"/>
<path d="M780 339 c0 -27 5 -49 10 -49 6 0 10 6 10 14 0 7 9 16 21 19 16 4 20
12 17 34 -2 23 -8 28 -30 29 -27 1 -28 -1 -28 -47z m45 16 c0 -10 -6 -20 -12
-22 -8 -3 -13 5 -13 22 0 17 5 25 13 23 6 -3 12 -13 12 -23z"/>
<path d="M864 376 c-11 -29 0 -51 26 -51 21 0 25 5 25 30 0 24 -5 31 -23 33
-13 2 -24 -3 -28 -12z m43 -12 c8 -21 -13 -42 -28 -27 -13 13 -5 43 11 43 6 0
13 -7 17 -16z"/>
<path d="M940 355 c0 -19 5 -35 10 -35 6 0 10 13 10 29 0 16 6 32 13 34 6 3 2
6 -10 6 -20 1 -23 -4 -23 -34z"/>
<path d="M995 381 c-3 -7 0 -8 9 -5 9 3 16 1 16 -5 0 -6 -7 -11 -15 -11 -8 0
-15 -9 -15 -20 0 -15 7 -20 26 -20 23 0 25 3 22 32 -3 33 -29 50 -43 29z m25
-41 c0 -5 -4 -10 -10 -10 -5 0 -10 5 -10 10 0 6 5 10 10 10 6 0 10 -4 10 -10z"/>
<path d="M1114 376 c-12 -30 0 -51 31 -53 18 -1 22 1 10 4 -34 9 -41 23 -11
23 21 0 27 4 24 18 -4 22 -46 29 -54 8z m41 -6 c3 -5 -1 -10 -9 -10 -9 0 -16
5 -16 10 0 6 4 10 9 10 6 0 13 -4 16 -10z"/>
<path d="M1314 376 c-12 -30 0 -51 31 -53 18 -1 22 1 10 4 -34 9 -41 23 -11
23 21 0 27 4 24 18 -4 22 -46 29 -54 8z m41 -6 c3 -5 -1 -10 -9 -10 -9 0 -16
5 -16 10 0 6 4 10 9 10 6 0 13 -4 16 -10z"/>
<path d="M1390 370 c0 -11 7 -20 15 -20 21 0 19 -18 -2 -23 -14 -4 -12 -5 5
-6 27 -1 31 33 5 44 -17 7 -16 8 2 15 19 8 19 9 -2 9 -17 1 -23 -5 -23 -19z"/>
<path d="M1450 355 c0 -19 5 -35 10 -35 6 0 10 16 10 35 0 19 -4 35 -10 35 -5
0 -10 -16 -10 -35z"/>
<path d="M1490 354 c0 -19 5 -34 10 -34 6 0 10 14 10 30 0 17 5 30 10 30 6 0
10 -13 10 -30 0 -16 5 -30 11 -30 6 0 9 14 7 33 -3 27 -7 32 -30 33 -25 1 -28
-2 -28 -32z"/>
<path d="M1577 383 c-3 -5 -7 -26 -8 -48 -4 -39 -3 -40 26 -40 37 0 41 26 5
35 -24 6 -24 6 -4 12 12 3 23 15 27 27 4 17 1 21 -18 21 -13 0 -26 -3 -28 -7z
m25 -18 c0 -5 -5 -11 -11 -13 -6 -2 -11 4 -11 13 0 9 5 15 11 13 6 -2 11 -8
11 -13z m8 -55 c0 -5 -7 -10 -15 -10 -8 0 -15 5 -15 10 0 6 7 10 15 10 8 0 15
-4 15 -10z"/>
<path d="M1760 355 c0 -19 5 -35 10 -35 6 0 10 13 10 29 0 16 6 32 13 34 6 3
2 6 -10 6 -20 1 -23 -4 -23 -34z"/>
<path d="M1817 383 c-4 -3 -7 -17 -7 -30 0 -26 25 -42 42 -25 7 7 4 10 -8 9
-13 -1 -19 5 -19 18 0 13 6 20 17 19 10 -1 15 2 12 7 -6 11 -28 12 -37 2z"/>
<path d="M1950 355 c0 -19 5 -35 10 -35 6 0 10 16 10 35 0 19 -4 35 -10 35 -5
0 -10 -16 -10 -35z"/>
<path d="M2044 376 c-12 -30 0 -51 31 -53 18 -1 22 1 10 4 -34 9 -41 23 -11
23 21 0 27 4 24 18 -4 22 -46 29 -54 8z m41 -6 c3 -5 -1 -10 -9 -10 -9 0 -16
5 -16 10 0 6 4 10 9 10 6 0 13 -4 16 -10z"/>
<path d="M2232 358 c3 -28 7 -33 31 -34 24 -1 27 2 27 32 0 19 -4 34 -10 34
-5 0 -10 -13 -10 -30 0 -16 -4 -30 -10 -30 -5 0 -10 14 -10 30 0 17 -5 30 -11
30 -6 0 -9 -14 -7 -32z"/>
<path d="M2310 355 c0 -19 5 -35 10 -35 6 0 10 13 10 29 0 16 6 32 13 34 6 3
2 6 -10 6 -20 1 -23 -4 -23 -34z"/>
<path d="M2364 376 c-12 -30 0 -51 31 -53 18 -1 22 1 10 4 -34 9 -41 23 -11
23 21 0 27 4 24 18 -4 22 -46 29 -54 8z m41 -6 c3 -5 -1 -10 -9 -10 -9 0 -16
5 -16 10 0 6 4 10 9 10 6 0 13 -4 16 -10z"/>
<path d="M760 226 c0 -7 -9 -16 -21 -19 -16 -4 -20 -12 -17 -34 2 -23 8 -28
31 -29 26 -1 27 1 27 47 0 27 -4 49 -10 49 -5 0 -10 -6 -10 -14z m0 -51 c0
-26 -14 -33 -25 -15 -9 14 1 40 15 40 5 0 10 -11 10 -25z"/>
<path d="M1050 230 c0 -5 5 -10 10 -10 6 0 10 5 10 10 0 6 -4 10 -10 10 -5 0
-10 -4 -10 -10z"/>
<path d="M1380 230 c0 -5 5 -10 10 -10 6 0 10 5 10 10 0 6 -4 10 -10 10 -5 0
-10 -4 -10 -10z"/>
<path d="M830 185 c0 -44 0 -45 33 -44 23 1 26 3 10 6 -27 5 -31 30 -5 36 16
4 16 5 0 6 -26 2 -22 29 5 34 16 3 13 5 -10 6 -33 1 -33 0 -33 -44z"/>
<path d="M575 201 c-3 -7 0 -8 9 -5 9 3 16 1 16 -5 0 -6 -7 -11 -15 -11 -8 0
-15 -9 -15 -20 0 -15 7 -20 26 -20 23 0 25 3 22 32 -3 33 -29 50 -43 29z m25
-41 c0 -5 -4 -10 -10 -10 -5 0 -10 5 -10 10 0 6 5 10 10 10 6 0 10 -4 10 -10z"/>
<path d="M640 174 c0 -19 5 -34 10 -34 6 0 10 14 10 30 0 17 5 30 10 30 6 0
10 -13 10 -30 0 -16 5 -30 11 -30 6 0 9 14 7 33 -3 27 -7 32 -30 33 -25 1 -28
-2 -28 -32z"/>
<path d="M900 174 c0 -19 5 -34 10 -34 6 0 10 14 10 30 0 17 5 30 10 30 6 0
10 -13 10 -30 0 -16 5 -30 11 -30 6 0 9 14 7 33 -3 27 -7 32 -30 33 -25 1 -28
-2 -28 -32z"/>
<path d="M987 203 c-3 -5 -7 -26 -8 -48 -4 -39 -3 -40 26 -40 37 0 41 26 5 35
-24 6 -24 6 -4 12 12 3 23 15 27 27 4 17 1 21 -18 21 -13 0 -26 -3 -28 -7z
m25 -18 c0 -5 -5 -11 -11 -13 -6 -2 -11 4 -11 13 0 9 5 15 11 13 6 -2 11 -8
11 -13z m8 -55 c0 -5 -7 -10 -15 -10 -8 0 -15 5 -15 10 0 6 7 10 15 10 8 0 15
-4 15 -10z"/>
<path d="M1050 175 c0 -19 5 -35 10 -35 6 0 10 16 10 35 0 19 -4 35 -10 35 -5
0 -10 -16 -10 -35z"/>
<path d="M1090 174 c0 -19 5 -34 10 -34 6 0 10 14 10 30 0 17 5 30 10 30 6 0
10 -13 10 -30 0 -16 5 -30 11 -30 6 0 9 14 7 33 -3 27 -7 32 -30 33 -25 1 -28
-2 -28 -32z"/>
<path d="M1174 196 c-12 -30 0 -51 31 -53 18 -1 22 1 10 4 -34 9 -41 23 -11
23 21 0 27 4 24 18 -4 22 -46 29 -54 8z m41 -6 c3 -5 -1 -10 -9 -10 -9 0 -16
5 -16 10 0 6 4 10 9 10 6 0 13 -4 16 -10z"/>
<path d="M1254 196 c-12 -30 0 -51 31 -53 18 -1 22 1 10 4 -34 9 -41 23 -11
23 21 0 27 4 24 18 -4 22 -46 29 -54 8z m41 -6 c3 -5 -1 -10 -9 -10 -9 0 -16
5 -16 10 0 6 4 10 9 10 6 0 13 -4 16 -10z"/>
<path d="M1330 175 c0 -19 5 -35 10 -35 6 0 10 13 10 29 0 16 6 32 13 34 6 3
2 6 -10 6 -20 1 -23 -4 -23 -34z"/>
<path d="M1380 175 c0 -19 5 -35 10 -35 6 0 10 16 10 35 0 19 -4 35 -10 35 -5
0 -10 -16 -10 -35z"/>
<path d="M1420 174 c0 -19 5 -34 10 -34 6 0 10 14 10 30 0 17 5 30 10 30 6 0
10 -13 10 -30 0 -16 5 -30 11 -30 6 0 9 14 7 33 -3 27 -7 32 -30 33 -25 1 -28
-2 -28 -32z"/>
<path d="M1507 203 c-3 -5 -7 -26 -8 -48 -4 -39 -3 -40 26 -40 37 0 41 26 5
35 -24 6 -24 6 -4 12 12 3 23 15 27 27 4 17 1 21 -18 21 -13 0 -26 -3 -28 -7z
m25 -18 c0 -5 -5 -11 -11 -13 -6 -2 -11 4 -11 13 0 9 5 15 11 13 6 -2 11 -8
11 -13z m8 -55 c0 -5 -7 -10 -15 -10 -8 0 -15 5 -15 10 0 6 7 10 15 10 8 0 15
-4 15 -10z"/>
</g>
</svg>
